<svg xmlns="http://www.w3.org/2000/svg" version="1.1" xmlns:xlink="http://www.w3.org/1999/xlink" xmlns:svgjs="http://svgjs.dev/svgjs" width="1000" height="623" viewBox="0 0 1000 623"><g transform="matrix(1,0,0,1,-0.6060606060606233,0.3253724696356244)"><svg viewBox="0 0 396 247" data-background-color="#000000" preserveAspectRatio="xMidYMid meet" height="623" width="1000" xmlns="http://www.w3.org/2000/svg" xmlns:xlink="http://www.w3.org/1999/xlink"><g id="tight-bounds" transform="matrix(1,0,0,1,0.2400000000000091,-0.09999999999999432)"><svg viewBox="0 0 395.52 247.2" height="247.2" width="395.52"><g><svg></svg></g><g><svg viewBox="0 0 395.52 247.2" height="247.2" width="395.52"><g><g><path d="M12.578 227.472v-29.261h45.65l0-31.144 41.16 0v31.144h49.317v29.261zM58.228 29.232h-49.317v-29.261h106.866l77.34 80.162-54.773 0-38.956-41.247 0 41.247-41.16 0zM275.702 29.232h-49.392v-29.261h139.794v29.261h-49.317v50.901l-41.085 0zM316.787 227.472h-39.289l-57.05-60.405h96.339zM288.499 240.269h41.459l0-73.202h7.259v80.162h-48.718zM329.958 42.029h49.317v-32.853h7.334v39.813h-49.392l0 31.144-7.259 0zM141.371 9.176h9.729l70.374 70.957-10.134 0zM237.311 48.989v-6.96h30.683v6.96zM19.912 48.989v-6.96l30.683 6.96zM112.484 187.285l0-20.218 7.334 0v20.218zM112.484 63.731l7.334 8.082 0 8.32-7.334 0zM23.579 240.269h138.297v-31.805h7.259v38.765h-145.556z" fill="#89939e" fill-rule="nonzero" stroke="none" stroke-width="1" stroke-linecap="butt" stroke-linejoin="miter" stroke-miterlimit="10" stroke-dasharray="" stroke-dashoffset="0" font-family="none" font-weight="none" font-size="none" text-anchor="none" style="mix-blend-mode: normal" data-fill-palette-color="tertiary"></path></g></g><g transform="matrix(1,0,0,1,0,87.55761336911566)"><svg viewBox="0 0 395.52 72.08477326176867" height="72.08477326176867" width="395.52"><g><svg viewBox="0 0 506.9439912578312 92.39214873138351" height="72.08477326176867" width="395.52"><g transform="matrix(1,0,0,1,111.42399125783123,26.041714618780038)"><svg viewBox="0 0 395.52 40.30871949382344" height="40.30871949382344" width="395.52"><g><svg viewBox="0 0 395.52 40.30871949382344" height="40.30871949382344" width="395.52"><g><svg viewBox="0 0 395.52 40.30871949382344" height="40.30871949382344" width="395.52"><g transform="matrix(1,0,0,1,0,0)"><svg width="395.52" viewBox="3.66 -30.4 324.10999999999996 33.04" height="40.30871949382344" data-palette-color="#89939e"><path d="M4.15 0L4.15-3.91 10.25-3.91 10.25-26.49 3.66-26.49 3.66-30.4 17.94-30.4 39.31-8.25 39.31-26.49 32.71-26.49 32.71-30.4 51.39-30.4 51.39-26.49 44.8-26.49 44.8 0 39.55 0 15.75-25.2 15.75-3.91 22.34-3.91 22.34 0 4.15 0ZM41.02 1.71L46.56 1.71 46.56-24.78 53.15-24.78 53.15-29.17 54.13-29.17 54.13-23.85 47.53-23.85 47.53 2.64 41.02 2.64 41.02 1.71ZM21.36-29.17L22.66-29.17 38.35-13.35 38.35-11.94 21.36-29.17ZM34.18-23.85L34.18-24.78 38.28-24.78 38.28-23.85 34.18-23.85ZM5.13-23.85L5.13-24.78 9.23-23.85 9.23-23.85 5.13-23.85ZM17.5-5.37L17.5-21.88 18.48-20.8 18.48-5.37 17.5-5.37ZM5.62 1.71L24.1 1.71 24.1-2.54 25.07-2.54 25.07 2.64 5.62 2.64 5.62 1.71ZM60.47 0L60.47-3.91 67.06-3.91 67.06-26.49 60.47-26.49 60.47-30.4 96.77-30.4 96.77-20.87 91.28-20.87 91.28-26.49 72.8-26.49 72.8-16.87 85.06-16.87 85.06-13.82 72.8-13.82 72.8-3.91 91.28-3.91 91.28-9.52 96.77-9.52 96.77 0 60.47 0ZM92.75-18.24L92.75-19.17 98.53-19.17 98.53-29.17 99.51-29.17 99.51-18.24 92.75-18.24ZM74.56-18.33L74.56-24.78 90.26-24.78 90.26-23.85 75.53-23.85 75.53-18.33 74.56-18.33ZM61.94-23.85L61.94-24.78 66.04-24.78 66.04-23.85 61.94-23.85ZM74.56-5.37L74.56-12.11 86.79-12.11 86.79-15.65 87.77-15.65 87.77-11.18 75.53-11.18 75.53-5.37 74.56-5.37ZM61.94 1.71L98.53 1.71 98.53-8.15 99.51-8.15 99.51 2.64 61.94 2.64 61.94 1.71ZM115.74 0L115.74-3.91 124.04-3.91 124.04-26.49 112.4-26.49 112.4-20.14 106.9-20.14 106.9-30.4 146.67-30.4 146.67-20.14 141.18-20.14 141.18-26.49 129.54-26.49 129.54-3.91 137.84-3.91 137.84 0 115.74 0ZM142.65-17.5L142.65-18.43 148.43-18.43 148.43-29.17 149.41-29.17 149.41-17.5 142.65-17.5ZM131.29-5.37L131.29-24.78 140.16-24.78 140.16-23.85 132.27-23.85 132.27-5.37 131.29-5.37ZM108.37-17.5L108.37-18.43 114.16-18.43 114.16-24.78 123.02-24.78 123.02-23.85 115.13-23.85 115.13-17.5 108.37-17.5ZM117.21 1.71L139.59 1.71 139.59-2.54 140.57-2.54 140.57 2.64 117.21 2.64 117.21 1.71ZM154.95 0L154.95-3.91 161.52-3.91 161.52-26.49 154.92-26.49 154.92-30.4 190.84-30.4 190.84-21.61 185.34-21.61 185.34-26.49 167.25-26.49 167.25-16.63 182.05-16.63 182.05-13.57 167.25-13.57 167.25-3.91 177.36-3.91 177.36 0 154.95 0ZM186.81-18.97L186.81-19.9 192.6-19.9 192.6-29.17 193.57-29.17 193.57-18.97 186.81-18.97ZM169.01-18.09L169.01-24.78 184.37-24.78 184.37-23.85 170.01-23.85 170.01-18.09 169.01-18.09ZM156.39-23.85L156.39-24.78 160.49-24.78 160.49-23.85 156.39-23.85ZM169.01-5.37L169.01-11.87 183.83-11.87 183.83-15.41 184.81-15.41 184.81-10.94 169.99-10.94 169.99-5.37 169.01-5.37ZM156.39 1.71L179.12 1.71 179.12-2.54 180.1-2.54 180.1 2.64 156.39 2.64 156.39 1.71ZM199.21 0L199.21-3.91 206.04-3.91 206.04-26.49 199.45-26.49 199.45-30.4 218.37-30.4 218.37-26.49 211.59-26.49 211.59-3.91 218.13-3.91 218.13 0 199.21 0ZM213.34-5.37L213.34-24.78 220.11-24.78 220.11-29.17 221.08-29.17 221.08-23.85 214.32-23.85 214.32-5.37 213.34-5.37ZM200.92-23.85L200.92-24.78 205.02-24.78 205.02-23.85 200.92-23.85ZM200.67 1.71L219.89 1.71 219.89-2.54 220.86-2.54 220.86 2.64 200.67 2.64 200.67 1.71ZM227.72 0L227.72-3.91 234.07-3.91 234.07-26.49 227.31-26.49 227.31-30.4 246.45-30.4 246.45-26.49 239.61-26.49 239.61-3.91 256.58-3.91 256.58-10.99 262.07-10.99 262.07 0 227.72 0ZM241.37-5.37L241.37-24.54 248.18-24.54 248.18-29.17 249.16-29.17 249.16-23.61 242.35-23.61 242.35-5.37 241.37-5.37ZM228.77-23.61L228.77-24.54 233.04-24.54 233.04-23.61 228.77-23.61ZM229.19 1.71L263.83 1.71 263.83-9.62 264.81-9.62 264.81 2.64 229.19 2.64 229.19 1.71ZM271.2 0L271.2-3.91 277.79-3.91 277.79-26.49 271.2-26.49 271.2-30.4 287.07-30.4 298.52-10.13 309.16-30.4 325.03-30.4 325.03-26.49 318.49-26.49 318.49-3.91 325.03-3.91 325.03 0 307.33 0 307.33-3.91 312.95-3.91 312.95-26.71 299.84-1.73 296.88-1.73 283.33-25.93 283.33-3.91 288.9-3.91 288.9 0 271.2 0ZM320.2-5.37L320.2-24.78 326.79-24.78 326.79-29.17 327.77-29.17 327.77-23.85 321.18-23.85 321.18-5.37 320.2-5.37ZM298.86-13.18L289.83-29.15 290.9-29.15 299.42-14.21 298.86-13.18ZM272.67-23.85L272.67-24.78 276.77-24.78 276.77-23.85 272.67-23.85ZM298.59 0L300.99 0 311.78-20.61 311.78-18.58 301.62 0.93 299.11 0.93 298.59 0ZM285.04-5.37L285.04-20.31 286.02-18.58 286.02-5.37 285.04-5.37ZM308.8 1.71L326.79 1.71 326.79-2.54 327.77-2.54 327.77 2.64 308.8 2.64 308.8 1.71ZM272.67 1.71L290.66 1.71 290.66-2.54 291.64-2.54 291.64 2.64 272.67 2.64 272.67 1.71Z" opacity="1" transform="matrix(1,0,0,1,0,0)" fill="#89939e" class="undefined-text-0" data-fill-palette-color="primary" id="text-0"></path></svg></g></svg></g></svg></g></svg></g><g><svg viewBox="0 0 92.39214873138351 92.39214873138351" height="92.39214873138351" width="92.39214873138351"><g><svg></svg></g><g id="icon-0"><svg viewBox="0 0 92.39214873138351 92.39214873138351" height="92.39214873138351" width="92.39214873138351"><g><path d="M0 46.196c0-25.513 20.683-46.196 46.196-46.196 25.513 0 46.196 20.683 46.196 46.196 0 25.513-20.683 46.196-46.196 46.196-25.513 0-46.196-20.683-46.196-46.196zM46.196 88.757c23.506 0 42.561-19.055 42.561-42.561 0-23.506-19.055-42.561-42.561-42.561-23.506 0-42.561 19.055-42.561 42.561 0 23.506 19.055 42.561 42.561 42.561z" data-fill-palette-color="accent" fill="#dedede" stroke="transparent"></path></g><g transform="matrix(1,0,0,1,26.065452171368594,24.742861604650397)"><svg viewBox="0 0 40.261244388646325 42.90642552208272" height="42.90642552208272" width="40.261244388646325"><g><svg xmlns="http://www.w3.org/2000/svg" xmlns:xlink="http://www.w3.org/1999/xlink" version="1.2" baseProfile="tiny" x="0" y="0" viewBox="3.082 0 93.83500000000001 100" xml:space="preserve" height="42.90642552208272" width="40.261244388646325" class="icon-gn-0" data-fill-palette-color="accent" id="gn-0"><path d="M93.35 0v2.587c0 1.559-1.157 2.823-2.587 2.823h-4.956c-1.429 0-2.588-1.264-2.588-2.823V0H16.866v2.587c0 1.559-1.158 2.823-2.588 2.823H9.322c-1.429 0-2.587-1.264-2.587-2.823V0H3.082v100h3.659c-0.001-0.021-0.006-0.039-0.006-0.059v-2.694c0-1.56 1.158-2.824 2.587-2.824h4.956c1.43 0 2.588 1.265 2.588 2.824v2.694c0 0.02-0.005 0.038-0.006 0.059h66.364c0-0.021-0.006-0.039-0.006-0.059v-2.694c0-1.56 1.159-2.824 2.588-2.824h4.956c1.43 0 2.587 1.265 2.587 2.824v2.694c0 0.02-0.005 0.038-0.005 0.059h3.573V0H93.35zM16.866 86.032c0 1.559-1.158 2.823-2.588 2.823H9.322c-1.429 0-2.587-1.265-2.587-2.823v-2.693c0-1.56 1.158-2.824 2.587-2.824h4.956c1.43 0 2.588 1.265 2.588 2.824V86.032zM16.866 72.124c0 1.561-1.158 2.824-2.588 2.824H9.322c-1.429 0-2.587-1.264-2.587-2.824v-2.693c0-1.559 1.158-2.823 2.587-2.823h4.956c1.43 0 2.588 1.265 2.588 2.823V72.124zM16.866 58.217c0 1.561-1.158 2.824-2.588 2.824H9.322c-1.429 0-2.587-1.264-2.587-2.824v-2.694c0-1.559 1.158-2.823 2.587-2.823h4.956c1.43 0 2.588 1.265 2.588 2.823V58.217zM16.866 44.31c0 1.559-1.158 2.823-2.588 2.823H9.322c-1.429 0-2.587-1.264-2.587-2.823v-2.694c0-1.56 1.158-2.824 2.587-2.824h4.956c1.43 0 2.588 1.264 2.588 2.824V44.31zM16.866 30.402c0 1.56-1.158 2.824-2.588 2.824H9.322c-1.429 0-2.587-1.264-2.587-2.824v-2.694c0-1.56 1.158-2.824 2.587-2.824h4.956c1.43 0 2.588 1.264 2.588 2.824V30.402zM16.866 16.495c0 1.559-1.158 2.823-2.588 2.823H9.322c-1.429 0-2.587-1.264-2.587-2.823v-2.694c0-1.56 1.158-2.824 2.587-2.824h4.956c1.43 0 2.588 1.264 2.588 2.824V16.495zM79.109 90.546c0 1.832-1.139 3.975-2.966 3.975H24.542c-1.828 0-3.651-2.143-3.651-3.975V56.081c0-1.831 1.823-2.656 3.651-2.656h51.602c1.827 0 2.966 0.825 2.966 2.656V90.546zM79.109 43.066c0 1.749-1.37 3.509-3.279 3.509H24.11c-1.909 0-3.22-1.76-3.22-3.509V8.229c0-1.749 1.311-2.75 3.22-2.75h51.72c1.909 0 3.279 1 3.279 2.75V43.066zM93.35 86.032c0 1.559-1.157 2.823-2.587 2.823h-4.956c-1.429 0-2.588-1.265-2.588-2.823v-2.693c0-1.56 1.159-2.824 2.588-2.824h4.956c1.43 0 2.587 1.265 2.587 2.824V86.032zM93.35 72.124c0 1.561-1.157 2.824-2.587 2.824h-4.956c-1.429 0-2.588-1.264-2.588-2.824v-2.693c0-1.559 1.159-2.823 2.588-2.823h4.956c1.43 0 2.587 1.265 2.587 2.823V72.124zM93.35 58.217c0 1.561-1.157 2.824-2.587 2.824h-4.956c-1.429 0-2.588-1.264-2.588-2.824v-2.694c0-1.559 1.159-2.823 2.588-2.823h4.956c1.43 0 2.587 1.265 2.587 2.823V58.217zM93.35 44.31c0 1.559-1.157 2.823-2.587 2.823h-4.956c-1.429 0-2.588-1.264-2.588-2.823v-2.694c0-1.56 1.159-2.824 2.588-2.824h4.956c1.43 0 2.587 1.264 2.587 2.824V44.31zM93.35 30.402c0 1.56-1.157 2.824-2.587 2.824h-4.956c-1.429 0-2.588-1.264-2.588-2.824v-2.694c0-1.56 1.159-2.824 2.588-2.824h4.956c1.43 0 2.587 1.264 2.587 2.824V30.402zM93.35 16.495c0 1.559-1.157 2.823-2.587 2.823h-4.956c-1.429 0-2.588-1.264-2.588-2.823v-2.694c0-1.56 1.159-2.824 2.588-2.824h4.956c1.43 0 2.587 1.264 2.587 2.824V16.495z" fill="#dedede" data-fill-palette-color="accent"></path></svg></g></svg></g></svg></g></svg></g></svg></g></svg></g></svg></g><defs></defs></svg><rect width="395.52" height="247.2" fill="none" stroke="none" visibility="hidden"></rect></g></svg></g></svg>